<svg width="240" height="196" viewBox="0 0 240 196" fill="none" xmlns="http://www.w3.org/2000/svg">
<path d="M6.714 194.7C5.9307 195.424 5.00107 195.786 3.90789 195.786C2.81471 195.786 1.89369 195.424 1.13621 194.7C0.378732 193.976 0 193.095 0 192.05V151.997C0 150.96 0.378732 150.071 1.13621 149.347C1.89369 148.623 2.81471 148.261 3.90789 148.261C5.00107 148.261 5.9307 148.623 6.714 149.347C7.4973 150.071 7.88465 150.952 7.88465 151.997V175.484L22.4403 161.568C23.1978 160.844 24.1188 160.482 25.212 160.482C26.3051 160.482 27.2348 160.844 28.0181 161.568C28.8014 162.292 29.1887 163.173 29.1887 164.218C29.1887 165.263 28.7842 166.143 27.9836 166.868L17.3359 177.048L28.2677 189.606C29.3092 190.873 29.447 192.223 28.6981 193.646C27.9406 195.07 26.8474 195.786 25.4358 195.786C24.0241 195.786 22.9481 195.333 22.2423 194.428L11.8012 182.347L7.89326 186.083V192.058C7.89326 193.103 7.50592 193.984 6.72261 194.708L6.714 194.7Z" fill="#282828"/>
<path d="M50.9921 195.992C46.2062 195.992 42.1605 194.321 38.8466 190.972C35.5326 187.622 33.8799 183.615 33.8799 178.957C33.8799 174.299 35.5498 170.283 38.8896 166.909C42.2294 163.535 46.2406 161.848 50.9232 161.848C55.6058 161.848 59.5998 163.559 62.8879 166.975C66.1761 170.39 67.8201 174.455 67.8201 179.163C67.8201 183.87 66.1588 187.762 62.8535 190.84C59.7289 194.28 55.7779 196 50.9921 196V195.992ZM44.1748 171.822C42.4704 173.723 41.6183 176.076 41.6183 178.883C41.6183 181.689 42.4704 184.092 44.1748 186.075C46.0168 187.754 48.2462 188.585 50.8457 188.585C53.4453 188.585 55.6746 187.746 57.5167 186.075C59.3674 184.084 60.2884 181.689 60.2884 178.883C60.2884 176.076 59.3674 173.723 57.5167 171.822C55.4853 170.102 53.2559 169.246 50.8457 169.246C48.4356 169.246 46.2062 170.11 44.1748 171.822Z" fill="#282828"/>
<path d="M89.3307 194.222C88.4785 195.037 87.9535 195.465 87.7727 195.514H87.6264C87.437 195.514 87.2735 195.58 87.1271 195.72H86.9894C86.8 195.761 86.5504 195.786 86.2405 195.786C85.9307 195.786 85.7069 195.761 85.5691 195.72H85.3539C85.0699 195.58 84.8289 195.49 84.6395 195.449C84.2608 195.358 84.0714 195.226 84.0714 195.037C84.0284 194.996 83.9251 194.922 83.7873 194.831C83.3656 194.469 83.1504 194.247 83.1504 194.157C83.0987 194.115 83.0471 194.017 82.9696 193.885C82.8921 193.753 82.8405 193.663 82.7889 193.613L71.1426 167.271C70.7122 166.366 70.7036 165.46 71.1082 164.555C71.5128 163.65 72.1756 163.008 73.0966 162.621C74.0176 162.235 74.9558 162.235 75.9027 162.621C76.8495 163.008 77.5123 163.675 77.8911 164.621L86.2664 182.882L91.233 171.542C91.8958 170.094 93.0664 169.369 94.745 169.369C96.4235 169.369 97.5769 170.094 98.188 171.542L103.232 182.882L111.607 164.621C111.935 163.666 112.589 163 113.561 162.621C114.534 162.235 115.49 162.235 116.436 162.621C117.383 163.008 118.055 163.65 118.459 164.555C118.864 165.46 118.847 166.366 118.425 167.271L106.71 193.613L106.426 194.157L106.357 194.222C106.167 194.543 105.858 194.815 105.436 195.037C105.436 195.087 105.427 195.103 105.401 195.103C105.375 195.103 105.281 195.161 105.117 195.276C104.954 195.391 104.833 195.457 104.764 195.482C104.695 195.506 104.635 195.531 104.584 195.547C104.532 195.572 104.368 195.63 104.084 195.72H103.938C103.792 195.761 103.568 195.786 103.267 195.786C102.965 195.786 102.733 195.761 102.595 195.72H102.449C102.259 195.63 102.096 195.58 101.95 195.58L101.881 195.514H101.812C101.622 195.424 101.407 195.292 101.175 195.103V195.037C101.132 194.996 100.986 194.881 100.753 194.7C100.564 194.7 100.4 194.543 100.254 194.222C100.211 194.222 100.185 194.198 100.185 194.157L94.7191 181.87L89.675 193.613C89.632 193.704 89.5115 193.885 89.3221 194.157V194.222H89.3307Z" fill="#282828"/>
<path d="M126.499 190.832C123.254 187.532 121.635 183.532 121.635 178.85C121.635 174.167 123.254 170.16 126.499 166.835C129.744 163.51 133.755 161.848 138.532 161.848C141.889 161.848 145.04 162.844 147.975 164.835C148.207 163.979 148.664 163.263 149.326 162.695C149.989 162.128 150.807 161.848 151.78 161.848C152.752 161.848 153.604 162.21 154.336 162.934C155.068 163.658 155.438 164.522 155.438 165.51V192.19C155.438 193.186 155.068 194.033 154.336 194.733C153.604 195.432 152.752 195.786 151.78 195.786C150.807 195.786 149.989 195.515 149.326 194.971C148.664 194.428 148.216 193.729 147.975 192.865C145.083 194.815 141.941 195.786 138.532 195.786C133.755 195.786 129.735 194.132 126.499 190.832ZM129.236 178.85C129.236 181.59 130.097 183.886 131.827 185.738C133.557 187.59 135.778 188.519 138.498 188.519C141.218 188.519 143.465 187.59 145.246 185.738C147.028 183.886 147.906 181.598 147.906 178.883C147.906 176.167 147.011 173.863 145.212 171.962C143.413 170.061 141.175 169.114 138.498 169.114C135.821 169.114 133.609 170.053 131.861 171.929C130.105 173.805 129.236 176.118 129.236 178.85Z" fill="#282828"/>
<path d="M172.834 151.931V153.355C172.834 154.4 172.464 155.281 171.732 156.005C171.001 156.729 170.097 157.091 169.038 157.091C167.979 157.091 167.058 156.729 166.301 156.005C165.543 155.281 165.165 154.4 165.165 153.355V151.931C165.165 150.935 165.543 150.08 166.301 149.355C167.058 148.631 167.971 148.269 169.038 148.269C170.105 148.269 171.001 148.623 171.732 149.322C172.464 150.022 172.834 150.894 172.834 151.939V151.931ZM166.258 162.967C166.989 162.267 167.902 161.914 168.995 161.914C170.088 161.914 170.992 162.267 171.732 162.967C172.464 163.666 172.834 164.563 172.834 165.65V192.124C172.834 193.169 172.464 194.033 171.732 194.741C171.001 195.44 170.097 195.794 169.038 195.794C167.979 195.794 167.058 195.432 166.301 194.708C165.543 193.984 165.165 193.128 165.165 192.132V165.642C165.165 164.555 165.535 163.658 166.266 162.959L166.258 162.967Z" fill="#282828"/>
<path d="M189.869 165.913C190.953 164.695 192.451 163.708 194.345 162.959C196.238 162.21 197.969 161.848 199.527 161.872C201.093 161.897 202.238 162.243 202.97 162.926C203.701 163.609 204.072 164.432 204.072 165.403C204.072 166.374 203.701 167.222 202.97 167.946C202.238 168.67 201.351 169.032 200.31 169.032C195.911 169.032 192.425 172.447 189.869 179.286V192.182C189.869 193.177 189.49 194.025 188.733 194.724C187.975 195.424 187.063 195.778 185.995 195.778C184.928 195.778 184.033 195.424 183.301 194.724C182.569 194.025 182.199 193.177 182.199 192.182V165.444C182.199 164.448 182.561 163.609 183.301 162.934C184.033 162.251 184.937 161.914 185.995 161.914C187.054 161.914 187.967 162.251 188.733 162.934C189.49 163.617 189.869 164.448 189.869 165.444V165.921V165.913Z" fill="#282828"/>
<path d="M223.172 195.992C218.386 195.992 214.34 194.321 211.026 190.972C207.712 187.622 206.06 183.615 206.06 178.957C206.06 174.299 207.73 170.283 211.07 166.909C214.409 163.535 218.42 161.848 223.103 161.848C227.786 161.848 231.78 163.559 235.068 166.975C238.356 170.39 240 174.455 240 179.163C240 183.87 238.339 187.762 235.033 190.84C231.909 194.28 227.958 196 223.172 196V195.992ZM216.355 171.822C214.65 173.723 213.798 176.076 213.798 178.883C213.798 181.689 214.65 184.092 216.355 186.075C218.197 187.754 220.426 188.585 223.026 188.585C225.625 188.585 227.855 187.746 229.697 186.075C231.539 184.084 232.468 181.689 232.468 178.883C232.468 176.076 231.547 173.723 229.697 171.822C227.657 170.102 225.436 169.246 223.026 169.246C220.615 169.246 218.386 170.11 216.355 171.822Z" fill="#282828"/>
<path d="M17.2265 131.142C63.6674 135.928 113.591 136.564 159.271 126.556C174.441 123.226 189.762 118.404 202.495 109.615C204.837 107.995 196.881 103.246 194.559 104.847C164.087 125.883 119.872 127.757 83.6903 128.467C59.9369 128.94 35.9361 128.303 12.2969 125.865C7.38632 125.355 14.7331 130.851 17.2265 131.124V131.142Z" fill="#0078E9"/>
<path d="M163.096 5.62038C137.591 5.85694 113.115 17.4301 92.9396 32.4607C94.5004 28.0025 95.7375 23.4715 96.4417 18.9223C98.3831 6.40284 89.3804 -3.49624 75.6004 1.18035C62.9814 5.4566 54.169 20.2688 47.7168 30.55C38.0479 45.9264 30.0159 62.2853 22.6501 78.7534C19.4525 85.9048 16.3691 93.129 13.5142 100.408C12.4673 103.083 10.0501 107.068 10.2214 110.034C10.4118 113.418 19.4906 116.312 19.2622 112.545C19.0148 108.251 25.0102 97.3688 27.18 92.2737C32.9661 78.6625 39.247 65.2332 46.2322 52.1679C53.1032 39.3027 60.5452 25.8371 70.8421 15.1373C74.0968 11.7709 78.0176 7.94957 82.7569 6.6576C88.9998 4.94709 88.1623 10.2606 87.5533 15.1919C86.1829 26.0736 81.1581 37.0645 76.0572 46.818C74.4965 49.8205 82.243 53.3871 84.3366 51.2762C108.718 26.8743 148.802 4.43758 184.927 13.809C205.844 19.2316 226.762 34.8991 221.452 57.7543C219.758 65.0512 215.704 71.9842 210.241 77.3159C206.701 80.7551 195.909 89.344 190.066 87.0512C197.108 82.3746 203.142 75.2597 205.312 68.1083C207.729 60.1017 201.029 50.8395 191.589 52.5136C183.519 53.9512 179.883 64.5781 178.646 71.1836C177.828 75.5872 177.98 80.1728 179.655 84.0305C176.629 85.8684 173.507 86.9784 170.747 86.3415C167.892 85.6864 165.913 83.5756 164.619 80.7733C169.377 76.5516 173.317 71.2927 175.81 66.325C179.94 58.1364 178.075 48.5649 167.036 47.3639C154.702 46.0355 151.162 63.0314 155.749 76.5334C153.427 78.4805 150.934 80.1546 148.307 81.392C144.786 83.0479 142.94 83.794 140.504 80.8461C139.875 80.0818 139.343 79.2266 138.867 78.3531C144.424 72.239 148.897 64.6691 151.067 57.7361C153.903 48.6923 147.812 41.086 137.325 43.1422C124.877 45.5806 123.45 62.4491 129.084 75.0231C126.666 77.6798 123.488 81.0826 120.1 82.2836C117.34 83.2663 117.531 84.1215 115.285 80.9189C113.819 78.8262 113.4 76.2605 113.267 73.8039C112.867 66.3978 115.551 58.5186 118.939 51.9131C120.557 48.7469 111.84 44.7982 110.184 48.019C105.882 56.4259 102.114 67.8535 105.254 77.0975C108.661 87.1604 120.081 92.3647 129.502 86.3961C131.082 85.3953 132.643 84.2125 134.166 82.9205C138.429 87.5789 144.177 90.1629 150.915 88.4888C153.998 87.7245 156.986 86.3051 159.784 84.4855C164.314 90.727 171.394 94.3845 180.911 91.5094C182.148 91.1455 183.385 90.6724 184.603 90.1083C185.555 90.7634 186.621 91.3457 187.82 91.8006C197.965 95.7857 209.841 89.8899 217.15 83.1935C225.354 75.66 230.911 65.1058 231.311 54.1513C232.472 22.2523 191.037 5.36562 163.077 5.63857L163.096 5.62038ZM138.41 52.3135C139.914 50.2026 140.751 48.6741 143.054 49.3292C143.511 49.4747 143.473 50.33 143.435 50.8759C143.035 56.2076 139.476 61.9578 135.821 66.9437C135.802 66.6889 135.764 66.4342 135.745 66.1976C135.422 61.6848 135.65 56.2076 138.41 52.3316V52.3135ZM168.73 53.3325C169.149 53.3871 169.32 53.842 169.244 55.043C169.072 58.2274 167.436 61.9578 165.856 64.5963C164.923 66.1794 163.838 67.7444 162.639 69.2911C162.734 64.4871 163.458 59.3192 164.961 56.7535C165.399 56.0256 167.378 52.7684 168.711 53.3325H168.73ZM196.214 58.5732C196.385 58.5368 196.442 58.555 196.651 58.5732C196.956 58.7369 196.956 58.8825 197.032 59.3738C197.241 60.684 197.013 62.2489 196.766 63.4863C196.004 67.2531 193.492 70.8742 191.037 73.8221C189.99 75.0777 188.505 76.7336 186.735 78.4259C187.059 70.3465 191.398 59.4466 196.214 58.5732Z" fill="#0078E9"/>
</svg>
